# xmcd CD database file
#
# Track frame offsets:
#	150
#	21465
#	42633
#	60955
#	70473
#	95142
#	109171
#	124879
#	142161
#	157305
#
# Disc length: 2351 seconds
#
# Revision: 0
# Processed by: cddbd v1.5.2PL0 Copyright (c) Steve Scherf et al.
# Submitted via: CDex 1.70beta2
#
DISCID=a0092d0a
DTITLE=Mike Milligan and Steam Shovel - Lucky Man
DYEAR=2010
DGENRE=Blues
TTITLE0=A Place in the Sun
TTITLE1=I'm Not Lost
TTITLE2=Sunshine Today
TTITLE3=Fool No More
TTITLE4=Will It Go Round In Circles
TTITLE5=The Bridge
TTITLE6=Busted
TTITLE7=Meat and Three
TTITLE8=The Dark End of the Street
TTITLE9=Lucky Man
EXTD=YEAR: 2010
EXTT0=
EXTT1=
EXTT2=
EXTT3=
EXTT4=
EXTT5=
EXTT6=
EXTT7=
EXTT8=
EXTT9=
PLAYORDER=
